<?xml version="1.0" standalone="no"?>
<!DOCTYPE svg PUBLIC "-//W3C//DTD SVG 20010904//EN"
 "http://www.w3.org/TR/2001/REC-SVG-20010904/DTD/svg10.dtd">
<svg version="1.0" xmlns="http://www.w3.org/2000/svg"
 width="500.000000pt" height="500.000000pt" viewBox="0 0 500.000000 500.000000"
 preserveAspectRatio="xMidYMid meet">

<g transform="translate(0.000000,500.000000) scale(0.100000,-0.100000)"
fill="#000000" stroke="none">
<path d="M1450 3621 c0 -6 15 -11 33 -11 41 0 92 -31 117 -72 17 -29 20 -51
20 -163 l0 -130 -56 -29 c-167 -88 -234 -326 -136 -485 15 -26 63 -74 110
-111 l82 -65 0 -195 c0 -176 -2 -198 -20 -227 -25 -41 -59 -63 -110 -70 -22
-3 -40 -10 -40 -14 0 -5 110 -9 245 -9 135 0 245 4 245 9 0 4 -18 11 -40 14
-21 3 -53 15 -70 27 -53 38 -61 65 -58 211 l3 131 81 -65 c95 -77 136 -123
168 -192 36 -77 47 -142 35 -216 -21 -134 -84 -221 -203 -279 -56 -28 -80 -34
-159 -38 -114 -6 -179 11 -265 68 -175 117 -210 353 -83 560 37 60 25 75 -19
23 -58 -71 -110 -209 -110 -293 0 -50 26 -154 51 -202 49 -96 155 -179 274
-214 73 -21 227 -24 305 -5 180 44 319 186 351 359 22 113 -9 258 -75 357 -47
70 -94 117 -234 228 l-122 97 0 290 0 290 33 -6 c94 -17 167 -81 187 -166 15
-63 35 -64 26 -2 -3 26 -6 84 -6 130 l0 84 -45 0 c-24 0 -78 5 -120 11 l-75
11 0 150 0 150 178 -4 c201 -4 226 -11 296 -88 49 -54 73 -111 85 -207 36
-265 -113 -423 -399 -423 -44 0 -80 -4 -80 -8 0 -5 19 -14 42 -21 62 -19 123
-88 303 -346 88 -126 184 -253 213 -282 60 -61 144 -107 234 -128 66 -16 238
-21 238 -7 0 4 -26 13 -57 20 -153 32 -237 115 -543 542 -24 34 -68 84 -98
111 -29 27 -47 49 -39 49 8 0 45 9 81 20 51 16 79 33 126 77 104 96 150 202
150 347 0 188 -86 323 -247 388 -56 22 -68 23 -430 26 -257 2 -373 0 -373 -7z
m170 -672 l0 -210 -35 26 c-71 55 -102 167 -74 269 10 36 81 126 100 126 5 0
9 -95 9 -211z"/>
<path d="M2828 2493 l-47 -4 -3 -115 -3 -114 67 0 c58 0 69 3 79 21 11 21 10
21 -12 5 -13 -9 -40 -16 -61 -16 l-38 0 0 50 0 50 40 0 c22 0 40 3 40 8 0 4
-18 6 -40 4 l-40 -4 0 51 0 51 50 0 c28 0 50 5 50 10 0 6 -8 9 -17 8 -10 -1
-39 -3 -65 -5z"/>
<path d="M3567 2475 c-4 -17 -11 -66 -18 -110 -6 -44 -16 -86 -21 -92 -8 -10
-4 -13 14 -13 21 0 24 4 21 28 -2 15 0 54 4 87 l8 60 48 -88 49 -88 41 85 c22
47 44 86 48 86 4 0 10 -38 14 -85 7 -82 8 -85 32 -85 19 0 23 3 15 13 -5 6
-13 32 -17 57 -3 25 -11 74 -17 110 l-11 64 -48 -97 c-27 -53 -51 -97 -54 -97
-3 0 -27 44 -54 97 -45 91 -49 95 -54 68z"/>
<path d="M2998 2389 c2 -67 -1 -105 -9 -115 -9 -12 -6 -14 22 -13 19 0 28 3
22 6 -8 3 -13 24 -13 54 l0 49 75 0 75 0 0 -43 c0 -24 -5 -48 -12 -55 -9 -9
-4 -12 23 -12 22 0 29 3 21 9 -10 6 -13 35 -10 115 2 89 1 106 -12 106 -12 0
-14 -11 -12 -55 l4 -55 -77 0 -77 0 4 55 c2 44 0 55 -12 55 -13 0 -14 -16 -12
-101z"/>
<path d="M3325 2399 c-22 -51 -48 -102 -58 -115 -18 -24 -18 -24 8 -24 14 0
24 4 21 9 -3 4 0 22 7 40 11 29 14 31 63 31 48 0 53 -2 64 -29 6 -17 9 -35 5
-40 -4 -7 6 -11 26 -11 30 0 31 1 17 18 -8 9 -34 61 -58 115 -24 53 -46 97
-49 97 -3 0 -24 -41 -46 -91z m64 14 c8 -21 16 -44 18 -50 4 -9 -8 -13 -40
-13 l-46 0 21 50 c11 28 24 50 27 50 4 0 13 -17 20 -37z"/>
</g>
</svg>
